<svg xmlns="http://www.w3.org/2000/svg" width="1000" height="808" viewBox="0 0 1000 808" font-family="Inter, Helvetica, Arial, sans-serif">
<text x="500" y="28" text-anchor="middle" font-size="17" font-weight="700" fill="#1e293b">Upstreaming timeline &#8212; every PR, per repository (bar: opened &#8594; merged/today)</text>
<line x1="242" y1="80" x2="242" y2="744" stroke="#e2e8f0" stroke-width="1"/><text x="242" y="74" text-anchor="middle" font-size="10" fill="#64748b">Jun 22</text><line x1="334" y1="80" x2="334" y2="744" stroke="#e2e8f0" stroke-width="1"/><text x="334" y="74" text-anchor="middle" font-size="10" fill="#64748b">Jun 29</text><line x1="426" y1="80" x2="426" y2="744" stroke="#e2e8f0" stroke-width="1"/><text x="426" y="74" text-anchor="middle" font-size="10" fill="#64748b">Jul 06</text><line x1="517" y1="80" x2="517" y2="744" stroke="#e2e8f0" stroke-width="1"/><text x="517" y="74" text-anchor="middle" font-size="10" fill="#64748b">Jul 13</text><line x1="609" y1="80" x2="609" y2="744" stroke="#e2e8f0" stroke-width="1"/><text x="609" y="74" text-anchor="middle" font-size="10" fill="#64748b">Jul 20</text><line x1="701" y1="80" x2="701" y2="744" stroke="#e2e8f0" stroke-width="1"/><text x="701" y="74" text-anchor="middle" font-size="10" fill="#64748b">Jul 27</text><line x1="793" y1="80" x2="793" y2="744" stroke="#e2e8f0" stroke-width="1"/><text x="793" y="74" text-anchor="middle" font-size="10" fill="#64748b">Aug 03</text><line x1="884" y1="80" x2="884" y2="744" stroke="#e2e8f0" stroke-width="1"/><text x="884" y="74" text-anchor="middle" font-size="10" fill="#64748b">Aug 10</text><line x1="924" y1="80" x2="924" y2="744" stroke="#dc2626" stroke-width="1" stroke-dasharray="4 3"/><text x="924" y="758" text-anchor="middle" font-size="10" fill="#dc2626">today</text>
<rect x="242" y="82" width="183" height="10" rx="3" fill="#dbeafe"/><text x="334" y="55" text-anchor="middle" font-size="10" font-weight="600" fill="#1e40af">demo development (runs 1-27)</text><rect x="465" y="82" width="92" height="10" rx="3" fill="#dbeafe"/><text x="511" y="55" text-anchor="middle" font-size="10" font-weight="600" fill="#1e40af">upstreaming wave</text><rect x="609" y="82" width="118" height="10" rx="3" fill="#dbeafe"/><text x="668" y="55" text-anchor="middle" font-size="10" font-weight="600" fill="#1e40af">api merge + vendor wave</text><rect x="740" y="82" width="26" height="10" rx="3" fill="#dbeafe"/><text x="753" y="55" text-anchor="middle" font-size="10" font-weight="600" fill="#1e40af">CI lanes</text><rect x="806" y="82" width="39" height="10" rx="3" fill="#dbeafe"/><text x="825" y="55" text-anchor="middle" font-size="10" font-weight="600" fill="#1e40af">coexistence + dual-stack</text><rect x="858" y="82" width="66" height="10" rx="3" fill="#dbeafe"/><text x="891" y="55" text-anchor="middle" font-size="10" font-weight="600" fill="#1e40af">TP API + review chase</text>
<text x="140" y="112" text-anchor="end" font-size="12" font-weight="600" fill="#334155">openshift/kube-vip</text><rect x="268" y="100" width="10" height="16" rx="4" fill="#bbf7d0" stroke="#16a34a" stroke-width="1.2"/><circle cx="268" cy="108" r="4" fill="#16a34a"/><text x="286" y="113" font-size="11" fill="#166534">#2 #3 go/Makefile CI — fork build fixes</text><rect x="295" y="124" width="10" height="16" rx="4" fill="#bbf7d0" stroke="#16a34a" stroke-width="1.2"/><circle cx="295" cy="132" r="4" fill="#16a34a"/><text x="313" y="137" font-size="11" fill="#166534">#4 Dockerfile.openshift</text><rect x="531" y="148" width="393" height="16" rx="4" fill="#e2e8f0" stroke="#94a3b8" stroke-width="1.2"/><text x="926" y="161" font-size="11" fill="#94a3b8">&#10005;</text><text x="938" y="161" font-size="11" fill="#475569">#6 route re-assert — closed: FRR fix suffices</text><text x="140" y="184" text-anchor="end" font-size="12" font-weight="600" fill="#334155">kube-vip/kube-vip</text><rect x="465" y="172" width="66" height="16" rx="4" fill="#bbf7d0" stroke="#16a34a" stroke-width="1.2"/><circle cx="531" cy="180" r="4" fill="#16a34a"/><text x="539" y="185" font-size="11" fill="#166534">#1627 kubeconfig</text><rect x="544" y="196" width="79" height="16" rx="4" fill="#bbf7d0" stroke="#16a34a" stroke-width="1.2"/><circle cx="622" cy="204" r="4" fill="#16a34a"/><text x="630" y="209" font-size="11" fill="#166534">#1636 re-assert + realm</text><rect x="832" y="220" width="26" height="16" rx="4" fill="#bbf7d0" stroke="#16a34a" stroke-width="1.2"/><circle cx="858" cy="228" r="4" fill="#16a34a"/><text x="826" y="233" text-anchor="end" font-size="11" fill="#166534">#1671 backend health-check addr</text><rect x="845" y="244" width="13" height="16" rx="4" fill="#bbf7d0" stroke="#16a34a" stroke-width="1.2"/><circle cx="858" cy="252" r="4" fill="#16a34a"/><text x="839" y="257" text-anchor="end" font-size="11" fill="#166534">#1675 vip_skipdad (DAD skip)</text><text x="140" y="280" text-anchor="end" font-size="12" font-weight="600" fill="#334155">openshift/api</text><rect x="465" y="268" width="197" height="16" rx="4" fill="#bbf7d0" stroke="#16a34a" stroke-width="1.2"/><circle cx="662" cy="276" r="4" fill="#16a34a"/><text x="459" y="281" text-anchor="end" font-size="11" fill="#166534">#2923 gate + vipManagement</text><rect x="884" y="292" width="39" height="16" rx="4" fill="#fde68a" stroke="#d97706" stroke-width="1.2"/><path d="M916,294 L924,300 L916,306 z" fill="#d97706"/><text x="878" y="305" text-anchor="end" font-size="11" fill="#92400e">#2972 BGPVIPConfig CRD (TP API, draft)</text><text x="140" y="328" text-anchor="end" font-size="12" font-weight="600" fill="#334155">dev-scripts</text><rect x="465" y="316" width="183" height="16" rx="4" fill="#bbf7d0" stroke="#16a34a" stroke-width="1.2"/><circle cx="649" cy="324" r="4" fill="#16a34a"/><text x="657" y="329" font-size="11" fill="#166534">#1929 BGP ToR</text><rect x="740" y="340" width="13" height="16" rx="4" fill="#bbf7d0" stroke="#16a34a" stroke-width="1.2"/><circle cx="753" cy="348" r="4" fill="#16a34a"/><text x="734" y="353" text-anchor="end" font-size="11" fill="#166534">#1939 BGP_VIP_MANAGEMENT knob</text><rect x="832" y="364" width="92" height="16" rx="4" fill="#fde68a" stroke="#d97706" stroke-width="1.2"/><path d="M916,366 L924,372 L916,378 z" fill="#d97706"/><text x="826" y="377" text-anchor="end" font-size="11" fill="#92400e">#1945 dual-stack v6 ToR peer + e2e optional fields</text><text x="140" y="400" text-anchor="end" font-size="12" font-weight="600" fill="#334155">FRRouting/frr</text><rect x="544" y="388" width="79" height="16" rx="4" fill="#bbf7d0" stroke="#16a34a" stroke-width="1.2"/><circle cx="622" cy="396" r="4" fill="#16a34a"/><text x="630" y="401" font-size="11" fill="#166534">#22676 zebra table-scoped fix</text><text x="140" y="424" text-anchor="end" font-size="12" font-weight="600" fill="#334155">metallb/frr-k8s</text><rect x="544" y="412" width="380" height="16" rx="4" fill="#fde68a" stroke="#d97706" stroke-width="1.2"/><path d="M916,414 L924,420 L916,426 z" fill="#d97706"/><text x="538" y="425" text-anchor="end" font-size="11" fill="#92400e">#470 redistribute design</text><text x="140" y="448" text-anchor="end" font-size="12" font-weight="600" fill="#334155">openshift/release</text><rect x="544" y="436" width="157" height="16" rx="4" fill="#bbf7d0" stroke="#16a34a" stroke-width="1.2"/><circle cx="701" cy="444" r="4" fill="#16a34a"/><text x="538" y="449" text-anchor="end" font-size="11" fill="#166534">#81957 kube-vip CI images</text><rect x="740" y="460" width="13" height="16" rx="4" fill="#bbf7d0" stroke="#16a34a" stroke-width="1.2"/><circle cx="753" cy="468" r="4" fill="#16a34a"/><text x="734" y="473" text-anchor="end" font-size="11" fill="#166534">#82698 e2e-metal-ipi-bgp-vip lane</text><rect x="806" y="484" width="118" height="16" rx="4" fill="#bbf7d0" stroke="#16a34a" stroke-width="1.2"/><circle cx="924" cy="492" r="4" fill="#16a34a"/><text x="800" y="497" text-anchor="end" font-size="11" fill="#166534">#82912 coexistence lanes + FRR-state verify</text><text x="140" y="520" text-anchor="end" font-size="12" font-weight="600" fill="#334155">cluster-network-operator</text><rect x="478" y="508" width="446" height="16" rx="4" fill="#fde68a" stroke="#d97706" stroke-width="1.2"/><path d="M916,510 L924,516 L916,522 z" fill="#d97706"/><text x="472" y="521" text-anchor="end" font-size="11" fill="#92400e">#3046 statusmanager fix</text><rect x="478" y="532" width="446" height="16" rx="4" fill="#fde68a" stroke="#d97706" stroke-width="1.2"/><path d="M916,534 L924,540 L916,546 z" fill="#d97706"/><text x="472" y="545" text-anchor="end" font-size="11" fill="#92400e">#3047 BGP VIP support</text><rect x="609" y="556" width="26" height="16" rx="4" fill="#bbf7d0" stroke="#16a34a" stroke-width="1.2"/><circle cx="635" cy="564" r="4" fill="#16a34a"/><text x="643" y="569" font-size="11" fill="#166534">#3070 frr-k8s CRD align</text><rect x="662" y="580" width="66" height="16" rx="4" fill="#bbf7d0" stroke="#16a34a" stroke-width="1.2"/><circle cx="727" cy="588" r="4" fill="#16a34a"/><text x="656" y="593" text-anchor="end" font-size="11" fill="#166534">#3089 api vendor bump</text><text x="140" y="616" text-anchor="end" font-size="12" font-weight="600" fill="#334155">baremetal-runtimecfg</text><rect x="478" y="604" width="446" height="16" rx="4" fill="#bbf7d0" stroke="#16a34a" stroke-width="1.2"/><circle cx="924" cy="612" r="4" fill="#16a34a"/><text x="472" y="617" text-anchor="end" font-size="11" fill="#166534">#395 FRR peer-file rendering</text><text x="140" y="640" text-anchor="end" font-size="12" font-weight="600" fill="#334155">ocp-build-data</text><rect x="544" y="628" width="380" height="16" rx="4" fill="#fde68a" stroke="#d97706" stroke-width="1.2"/><path d="M916,630 L924,636 L916,642 z" fill="#d97706"/><text x="538" y="641" text-anchor="end" font-size="11" fill="#92400e">#11838 ose-kube-vip onboarding</text><text x="140" y="664" text-anchor="end" font-size="12" font-weight="600" fill="#334155">machine-config-operator</text><rect x="635" y="652" width="288" height="16" rx="4" fill="#fde68a" stroke="#d97706" stroke-width="1.2"/><path d="M916,654 L924,660 L916,666 z" fill="#d97706"/><text x="629" y="665" text-anchor="end" font-size="11" fill="#92400e">#6326 BGP VIP static pods</text><rect x="662" y="676" width="39" height="16" rx="4" fill="#bbf7d0" stroke="#16a34a" stroke-width="1.2"/><circle cx="701" cy="684" r="4" fill="#16a34a"/><text x="656" y="689" text-anchor="end" font-size="11" fill="#166534">#6334 api vendor bump</text><text x="140" y="712" text-anchor="end" font-size="12" font-weight="600" fill="#334155">openshift/installer</text><rect x="662" y="700" width="52" height="16" rx="4" fill="#bbf7d0" stroke="#16a34a" stroke-width="1.2"/><circle cx="714" cy="708" r="4" fill="#16a34a"/><text x="656" y="713" text-anchor="end" font-size="11" fill="#166534">#10713 rebase/vendor wave</text><rect x="714" y="724" width="210" height="16" rx="4" fill="#fde68a" stroke="#d97706" stroke-width="1.2"/><path d="M916,726 L924,732 L916,738 z" fill="#d97706"/><text x="708" y="737" text-anchor="end" font-size="11" fill="#92400e">#10718 BGP VIP support</text>
<g font-size="11">
 <rect x="150" y="786" width="26" height="12" rx="3" fill="#bbf7d0" stroke="#16a34a"/><text x="182" y="796" fill="#166534">merged</text>
 <rect x="250" y="786" width="26" height="12" rx="3" fill="#fde68a" stroke="#d97706"/><text x="282" y="796" fill="#92400e">open (review-gated)</text>
 <rect x="420" y="786" width="26" height="12" rx="3" fill="#e2e8f0" stroke="#94a3b8"/><text x="452" y="796" fill="#475569">closed unmerged</text>
</g>
</svg>
